<?xml version="1.0" encoding="UTF-8"?>
<svg xmlns="http://www.w3.org/2000/svg" xmlns:xlink="http://www.w3.org/1999/xlink" viewBox="0 0 50 50" width="50px" height="50px">
<g id="surface10243204">
<path style=" stroke:none;fill-rule:nonzero;fill:rgb(100%,100%,100%);fill-opacity:1;" d="M 25 6 C 13.527344 6 4 13.714844 4 23.4375 C 4 29.609375 8.003906 35.335938 14.300781 38.4375 C 14.300781 38.4375 14.300781 38.4375 14.300781 38.441406 C 14.320312 38.449219 14.316406 38.429688 14.308594 38.464844 C 14.027344 39.335938 13.082031 41.109375 12.175781 42.433594 C 11.933594 42.785156 11.941406 43.25 12.195312 43.59375 C 12.445312 43.933594 12.886719 44.082031 13.292969 43.957031 C 15.738281 43.203125 18.265625 41.808594 19.785156 40.328125 L 19.789062 40.328125 C 20.699219 40.523438 21.625 40.65625 22.554688 40.75 C 24.945312 42.757812 28.246094 43.992188 31.839844 43.992188 C 33.011719 43.992188 34.1875 43.851562 35.335938 43.585938 C 36.382812 44.316406 37.523438 44.589844 38.570312 44.949219 C 38.972656 45.085938 39.417969 44.953125 39.679688 44.621094 C 39.945312 44.289062 39.96875 43.824219 39.742188 43.46875 C 39.382812 42.898438 39.167969 42.65625 38.972656 42.199219 C 42.648438 40.191406 44.945312 36.757812 44.945312 32.996094 C 44.945312 31.953125 44.765625 30.957031 44.445312 30.011719 C 45.441406 27.988281 46 25.761719 46 23.4375 C 46 13.714844 36.472656 6 25 6 Z M 25 8 C 35.582031 8 44 15.035156 44 23.4375 C 44 24.886719 43.738281 26.285156 43.273438 27.617188 C 41.011719 24.242188 36.691406 22 31.839844 22 C 24.71875 22 18.738281 26.828125 18.738281 32.996094 C 18.738281 34.980469 19.363281 36.824219 20.445312 38.417969 C 20.363281 38.398438 20.277344 38.386719 20.199219 38.371094 C 20.195312 38.371094 20.195312 38.371094 20.191406 38.371094 C 20.0625 38.34375 19.925781 38.328125 19.78125 38.328125 C 19.265625 38.328125 18.765625 38.535156 18.398438 38.894531 C 17.703125 39.570312 16.507812 40.292969 15.214844 40.949219 C 15.542969 40.304688 16.039062 39.609375 16.210938 39.074219 C 16.511719 38.132812 16.070312 37.082031 15.183594 36.644531 C 9.460938 33.824219 6 28.742188 6 23.4375 C 6 15.035156 14.417969 8 25 8 Z M 31.839844 24 C 38.070312 24 42.945312 28.140625 42.945312 32.996094 C 42.945312 35.96875 41.144531 38.769531 37.957031 40.484375 C 37.324219 40.824219 37.074219 41.5 37.070312 42.191406 C 36.894531 42.101562 36.59375 42.039062 36.445312 41.9375 C 36.128906 41.710938 35.738281 41.585938 35.347656 41.585938 C 35.199219 41.585938 35.050781 41.601562 34.910156 41.636719 C 33.902344 41.871094 32.867188 41.992188 31.84375 41.992188 C 25.613281 41.992188 20.738281 37.847656 20.738281 32.996094 C 20.738281 28.140625 25.613281 24 31.84375 24 Z M 26.703125 31.058594 C 25.988281 31.042969 25.320312 31.414062 24.957031 32.03125 C 24.597656 32.648438 24.597656 33.414062 24.957031 34.03125 C 25.320312 34.648438 25.988281 35.023438 26.703125 35.007812 C 27.417969 35.023438 28.085938 34.648438 28.449219 34.03125 C 28.808594 33.414062 28.808594 32.648438 28.449219 32.03125 C 28.085938 31.414062 27.417969 31.042969 26.703125 31.058594 Z M 32.238281 31.058594 C 31.519531 31.042969 30.851562 31.414062 30.492188 32.03125 C 30.128906 32.648438 30.128906 33.414062 30.492188 34.03125 C 30.851562 34.648438 31.519531 35.023438 32.238281 35.007812 C 32.953125 35.023438 33.621094 34.648438 33.980469 34.03125 C 34.34375 33.414062 34.34375 32.648438 33.980469 32.03125 C 33.621094 31.414062 32.953125 31.042969 32.238281 31.058594 Z M 37.769531 31.058594 C 37.054688 31.042969 36.386719 31.414062 36.023438 32.03125 C 35.664062 32.648438 35.664062 33.414062 36.023438 34.03125 C 36.386719 34.648438 37.054688 35.023438 37.769531 35.007812 C 38.484375 35.023438 39.152344 34.648438 39.515625 34.03125 C 39.875 33.414062 39.875 32.648438 39.515625 32.03125 C 39.152344 31.414062 38.484375 31.042969 37.769531 31.058594 Z M 37.769531 31.058594 "/>
</g>
</svg>
