<?xml version="1.0" encoding="UTF-8"?>
<svg xmlns="http://www.w3.org/2000/svg" xmlns:xlink="http://www.w3.org/1999/xlink" viewBox="0 0 64 64" width="64px" height="64px">
<g id="surface10300203">
<path style=" stroke:none;fill-rule:nonzero;fill:rgb(100%,100%,100%);fill-opacity:1;" d="M 32 4 C 16.546875 4 4 16.546875 4 32 C 4 47.453125 16.546875 60 32 60 C 47.453125 60 60 47.453125 60 32 C 60 16.546875 47.453125 4 32 4 Z M 32 6 C 46.371094 6 58 17.628906 58 32 C 58 46.371094 46.371094 58 32 58 C 17.628906 58 6 46.371094 6 32 C 6 17.628906 17.628906 6 32 6 Z M 31.984375 8.988281 C 31.433594 8.996094 30.992188 9.449219 31 10 L 31 11.027344 C 30.441406 11.050781 29.890625 11.105469 29.34375 11.171875 L 29.164062 10.160156 C 29.085938 9.679688 28.675781 9.324219 28.1875 9.320312 C 27.886719 9.316406 27.601562 9.449219 27.410156 9.679688 C 27.21875 9.910156 27.140625 10.214844 27.195312 10.507812 L 27.375 11.519531 C 26.828125 11.640625 26.292969 11.78125 25.765625 11.941406 L 25.417969 10.984375 C 25.28125 10.59375 24.917969 10.328125 24.507812 10.3125 C 24.171875 10.300781 23.855469 10.457031 23.660156 10.730469 C 23.464844 11.003906 23.417969 11.355469 23.535156 11.667969 L 23.886719 12.628906 C 23.375 12.847656 22.878906 13.09375 22.386719 13.347656 L 21.867188 12.445312 C 21.683594 12.121094 21.332031 11.921875 20.957031 11.933594 C 20.601562 11.949219 20.28125 12.148438 20.113281 12.457031 C 19.945312 12.769531 19.953125 13.144531 20.136719 13.445312 L 20.65625 14.351562 C 20.191406 14.652344 19.742188 14.976562 19.300781 15.308594 L 18.625 14.503906 C 18.433594 14.265625 18.140625 14.132812 17.835938 14.136719 C 17.449219 14.144531 17.097656 14.371094 16.941406 14.726562 C 16.78125 15.082031 16.839844 15.496094 17.09375 15.789062 L 17.769531 16.59375 C 17.363281 16.972656 16.972656 17.363281 16.597656 17.769531 L 15.789062 17.09375 C 15.609375 16.9375 15.382812 16.851562 15.148438 16.847656 C 14.722656 16.84375 14.339844 17.109375 14.195312 17.507812 C 14.050781 17.910156 14.175781 18.355469 14.503906 18.625 L 15.3125 19.300781 C 14.976562 19.742188 14.652344 20.191406 14.351562 20.65625 L 13.449219 20.132812 C 13.273438 20.03125 13.074219 19.980469 12.875 19.992188 C 12.429688 20.023438 12.058594 20.335938 11.960938 20.769531 C 11.863281 21.203125 12.058594 21.648438 12.449219 21.863281 L 13.351562 22.386719 C 13.09375 22.878906 12.847656 23.375 12.632812 23.886719 L 11.671875 23.535156 C 11.542969 23.488281 11.410156 23.46875 11.277344 23.472656 C 10.796875 23.492188 10.398438 23.847656 10.324219 24.324219 C 10.253906 24.796875 10.53125 25.257812 10.984375 25.414062 L 11.945312 25.765625 C 11.78125 26.292969 11.640625 26.828125 11.519531 27.371094 L 10.507812 27.195312 C 10.441406 27.183594 10.375 27.175781 10.308594 27.175781 C 9.792969 27.1875 9.367188 27.585938 9.328125 28.101562 C 9.289062 28.617188 9.648438 29.078125 10.160156 29.164062 L 11.175781 29.34375 C 11.105469 29.890625 11.050781 30.441406 11.027344 31 L 10 31 C 9.640625 30.996094 9.304688 31.183594 9.121094 31.496094 C 8.941406 31.808594 8.941406 32.191406 9.121094 32.503906 C 9.304688 32.816406 9.640625 33.003906 10 33 L 11.027344 33 C 11.050781 33.558594 11.105469 34.109375 11.175781 34.65625 L 10.160156 34.835938 C 9.800781 34.886719 9.496094 35.132812 9.367188 35.472656 C 9.238281 35.816406 9.304688 36.199219 9.542969 36.476562 C 9.78125 36.753906 10.152344 36.878906 10.507812 36.804688 L 11.519531 36.625 C 11.640625 37.171875 11.78125 37.707031 11.945312 38.234375 L 10.984375 38.582031 C 10.644531 38.703125 10.394531 38.996094 10.332031 39.351562 C 10.269531 39.707031 10.398438 40.066406 10.675781 40.296875 C 10.953125 40.527344 11.332031 40.589844 11.671875 40.460938 L 12.632812 40.113281 C 12.847656 40.625 13.09375 41.121094 13.351562 41.613281 L 12.449219 42.132812 C 12.121094 42.304688 11.917969 42.640625 11.914062 43.007812 C 11.910156 43.375 12.105469 43.714844 12.425781 43.894531 C 12.746094 44.070312 13.136719 44.0625 13.449219 43.863281 L 14.351562 43.34375 C 14.652344 43.808594 14.976562 44.257812 15.3125 44.699219 L 14.503906 45.375 C 14.214844 45.601562 14.074219 45.964844 14.132812 46.324219 C 14.195312 46.683594 14.445312 46.984375 14.789062 47.105469 C 15.132812 47.226562 15.515625 47.148438 15.789062 46.90625 L 16.597656 46.230469 C 16.972656 46.636719 17.363281 47.027344 17.769531 47.402344 L 17.09375 48.210938 C 16.851562 48.484375 16.773438 48.867188 16.894531 49.210938 C 17.015625 49.554688 17.316406 49.804688 17.675781 49.867188 C 18.035156 49.925781 18.398438 49.785156 18.625 49.496094 L 19.300781 48.6875 C 19.742188 49.023438 20.191406 49.347656 20.65625 49.648438 L 20.132812 50.550781 C 19.9375 50.863281 19.929688 51.253906 20.105469 51.574219 C 20.285156 51.894531 20.625 52.089844 20.992188 52.085938 C 21.359375 52.082031 21.695312 51.878906 21.867188 51.550781 L 22.386719 50.648438 C 22.878906 50.90625 23.375 51.152344 23.886719 51.367188 L 23.535156 52.328125 C 23.410156 52.667969 23.472656 53.046875 23.703125 53.324219 C 23.933594 53.601562 24.292969 53.730469 24.648438 53.667969 C 25.003906 53.605469 25.296875 53.355469 25.414062 53.015625 L 25.765625 52.054688 C 26.292969 52.21875 26.828125 52.359375 27.371094 52.480469 L 27.195312 53.492188 C 27.121094 53.847656 27.246094 54.21875 27.523438 54.457031 C 27.800781 54.695312 28.183594 54.761719 28.527344 54.632812 C 28.867188 54.503906 29.113281 54.199219 29.164062 53.839844 L 29.34375 52.824219 C 29.890625 52.894531 30.441406 52.949219 31 52.972656 L 31 54 C 30.996094 54.359375 31.183594 54.695312 31.496094 54.878906 C 31.808594 55.058594 32.191406 55.058594 32.503906 54.878906 C 32.816406 54.695312 33.003906 54.359375 33 54 L 33 52.972656 C 33.558594 52.949219 34.109375 52.894531 34.65625 52.824219 L 34.835938 53.839844 C 34.886719 54.199219 35.132812 54.503906 35.472656 54.632812 C 35.816406 54.761719 36.199219 54.695312 36.476562 54.457031 C 36.753906 54.21875 36.878906 53.847656 36.804688 53.492188 L 36.628906 52.480469 C 37.171875 52.359375 37.707031 52.21875 38.234375 52.054688 L 38.585938 53.015625 C 38.703125 53.355469 38.996094 53.605469 39.351562 53.667969 C 39.707031 53.730469 40.066406 53.601562 40.296875 53.324219 C 40.527344 53.046875 40.589844 52.667969 40.464844 52.328125 L 40.113281 51.367188 C 40.625 51.152344 41.121094 50.90625 41.613281 50.648438 L 42.132812 51.550781 C 42.304688 51.878906 42.640625 52.082031 43.007812 52.085938 C 43.375 52.089844 43.714844 51.894531 43.894531 51.574219 C 44.070312 51.253906 44.0625 50.863281 43.867188 50.550781 L 43.34375 49.648438 C 43.808594 49.347656 44.257812 49.023438 44.699219 48.6875 L 45.375 49.496094 C 45.601562 49.785156 45.964844 49.925781 46.324219 49.867188 C 46.683594 49.804688 46.984375 49.554688 47.105469 49.210938 C 47.226562 48.867188 47.148438 48.484375 46.90625 48.210938 L 46.230469 47.402344 C 46.636719 47.027344 47.027344 46.636719 47.402344 46.230469 L 48.210938 46.90625 C 48.484375 47.148438 48.867188 47.226562 49.210938 47.105469 C 49.554688 46.984375 49.804688 46.683594 49.867188 46.324219 C 49.925781 45.964844 49.785156 45.601562 49.496094 45.375 L 48.6875 44.699219 C 49.023438 44.257812 49.347656 43.808594 49.648438 43.34375 L 50.550781 43.863281 C 50.863281 44.0625 51.253906 44.070312 51.574219 43.894531 C 51.894531 43.714844 52.089844 43.375 52.085938 43.007812 C 52.082031 42.640625 51.878906 42.304688 51.550781 42.132812 L 50.648438 41.613281 C 50.90625 41.121094 51.152344 40.625 51.367188 40.113281 L 52.328125 40.460938 C 52.667969 40.589844 53.046875 40.527344 53.324219 40.296875 C 53.601562 40.066406 53.730469 39.707031 53.667969 39.351562 C 53.605469 38.996094 53.355469 38.703125 53.015625 38.582031 L 52.054688 38.234375 C 52.21875 37.707031 52.359375 37.171875 52.480469 36.625 L 53.492188 36.804688 C 53.847656 36.878906 54.21875 36.753906 54.457031 36.476562 C 54.695312 36.199219 54.761719 35.816406 54.632812 35.472656 C 54.503906 35.132812 54.199219 34.886719 53.839844 34.835938 L 52.824219 34.65625 C 52.894531 34.109375 52.949219 33.558594 52.972656 33 L 54 33 C 54.359375 33.003906 54.695312 32.816406 54.878906 32.503906 C 55.058594 32.191406 55.058594 31.808594 54.878906 31.496094 C 54.695312 31.183594 54.359375 30.996094 54 31 L 52.972656 31 C 52.949219 30.441406 52.894531 29.890625 52.824219 29.34375 L 53.839844 29.164062 C 54.355469 29.078125 54.71875 28.609375 54.671875 28.089844 C 54.625 27.566406 54.183594 27.171875 53.660156 27.175781 C 53.605469 27.179688 53.546875 27.183594 53.492188 27.195312 L 52.480469 27.371094 C 52.359375 26.828125 52.21875 26.292969 52.054688 25.765625 L 53.015625 25.414062 C 53.476562 25.257812 53.753906 24.789062 53.675781 24.308594 C 53.597656 23.828125 53.179688 23.472656 52.691406 23.46875 C 52.570312 23.46875 52.445312 23.492188 52.328125 23.535156 L 51.367188 23.886719 C 51.152344 23.375 50.90625 22.878906 50.648438 22.386719 L 51.550781 21.863281 C 51.941406 21.644531 52.140625 21.191406 52.035156 20.757812 C 51.929688 20.320312 51.546875 20.011719 51.097656 19.992188 C 50.90625 19.988281 50.71875 20.035156 50.550781 20.132812 L 49.648438 20.65625 C 49.347656 20.191406 49.023438 19.742188 48.6875 19.300781 L 49.496094 18.625 C 49.828125 18.351562 49.949219 17.898438 49.796875 17.496094 C 49.644531 17.09375 49.253906 16.835938 48.820312 16.851562 C 48.597656 16.859375 48.382812 16.945312 48.210938 17.09375 L 47.402344 17.769531 C 47.027344 17.363281 46.636719 16.972656 46.230469 16.59375 L 46.90625 15.789062 C 47.164062 15.492188 47.222656 15.070312 47.054688 14.710938 C 46.886719 14.355469 46.527344 14.128906 46.132812 14.136719 C 45.839844 14.140625 45.5625 14.277344 45.375 14.503906 L 44.699219 15.308594 C 44.257812 14.976562 43.808594 14.652344 43.34375 14.351562 L 43.863281 13.445312 C 44.046875 13.140625 44.054688 12.757812 43.878906 12.445312 C 43.703125 12.132812 43.375 11.9375 43.015625 11.933594 C 42.652344 11.933594 42.3125 12.128906 42.132812 12.445312 L 41.613281 13.347656 C 41.121094 13.09375 40.625 12.847656 40.113281 12.628906 L 40.460938 11.667969 C 40.578125 11.367188 40.539062 11.03125 40.363281 10.761719 C 40.183594 10.492188 39.886719 10.324219 39.5625 10.3125 C 39.125 10.300781 38.726562 10.570312 38.582031 10.984375 L 38.234375 11.941406 C 37.707031 11.78125 37.171875 11.640625 36.625 11.519531 L 36.804688 10.507812 C 36.863281 10.207031 36.78125 9.898438 36.578125 9.667969 C 36.378906 9.433594 36.085938 9.308594 35.78125 9.320312 C 35.308594 9.339844 34.910156 9.691406 34.835938 10.160156 L 34.65625 11.171875 C 34.109375 11.105469 33.558594 11.050781 33 11.023438 L 33 10 C 33.003906 9.730469 32.898438 9.46875 32.707031 9.277344 C 32.515625 9.085938 32.253906 8.980469 31.984375 8.984375 Z M 31.882812 13.007812 C 31.964844 13.015625 32.042969 13.015625 32.125 13.007812 C 33.144531 13.011719 34.140625 13.113281 35.117188 13.277344 C 35.246094 13.324219 35.382812 13.34375 35.519531 13.339844 C 37.574219 13.722656 39.507812 14.433594 41.269531 15.417969 C 41.386719 15.535156 41.527344 15.621094 41.683594 15.667969 C 42.550781 16.183594 43.382812 16.75 44.15625 17.394531 C 44.164062 17.402344 44.167969 17.40625 44.175781 17.414062 C 45.039062 18.132812 45.839844 18.933594 46.5625 19.796875 C 46.570312 19.804688 46.578125 19.816406 46.589844 19.824219 C 47.238281 20.601562 47.808594 21.4375 48.332031 22.316406 C 48.378906 22.46875 48.464844 22.613281 48.582031 22.726562 C 49.570312 24.488281 50.277344 26.425781 50.664062 28.480469 C 50.652344 28.621094 50.675781 28.761719 50.726562 28.894531 C 50.886719 29.867188 50.988281 30.863281 50.996094 31.882812 C 50.984375 31.964844 50.984375 32.042969 50.996094 32.125 C 50.972656 35.5 50.066406 38.660156 48.507812 41.398438 C 48.472656 41.445312 48.441406 41.492188 48.417969 41.546875 C 47.898438 42.433594 47.328125 43.28125 46.679688 44.070312 C 46.597656 44.136719 46.527344 44.21875 46.46875 44.308594 C 45.804688 45.085938 45.082031 45.808594 44.304688 46.472656 C 44.21875 46.527344 44.140625 46.597656 44.074219 46.675781 C 43.289062 47.324219 42.445312 47.890625 41.5625 48.40625 C 41.503906 48.433594 41.449219 48.46875 41.398438 48.507812 C 38.65625 50.066406 35.492188 50.972656 32.113281 50.996094 C 32.070312 50.988281 32.027344 50.984375 31.984375 50.988281 C 31.949219 50.988281 31.910156 50.988281 31.875 50.996094 C 28.488281 50.972656 25.320312 50.058594 22.574219 48.488281 C 22.539062 48.464844 22.503906 48.441406 22.464844 48.421875 C 21.574219 47.902344 20.71875 47.332031 19.929688 46.679688 C 19.863281 46.597656 19.785156 46.527344 19.699219 46.472656 C 18.917969 45.8125 18.195312 45.085938 17.535156 44.308594 C 17.476562 44.214844 17.402344 44.136719 17.316406 44.066406 C 16.664062 43.273438 16.089844 42.417969 15.570312 41.523438 C 15.554688 41.488281 15.535156 41.460938 15.515625 41.429688 C 13.941406 38.683594 13.027344 35.507812 13.007812 32.117188 C 13.015625 32.035156 13.015625 31.957031 13.007812 31.875 C 13.011719 30.855469 13.113281 29.859375 13.277344 28.882812 C 13.324219 28.753906 13.34375 28.617188 13.339844 28.480469 C 13.722656 26.425781 14.433594 24.492188 15.417969 22.730469 C 15.535156 22.613281 15.621094 22.472656 15.667969 22.320312 C 16.183594 21.449219 16.753906 20.613281 17.398438 19.839844 C 17.402344 19.835938 17.40625 19.828125 17.414062 19.824219 C 18.136719 18.957031 18.941406 18.152344 19.808594 17.429688 C 19.8125 17.421875 19.820312 17.417969 19.824219 17.414062 C 20.601562 16.761719 21.4375 16.191406 22.316406 15.671875 C 22.46875 15.621094 22.613281 15.535156 22.726562 15.417969 C 24.488281 14.429688 26.425781 13.722656 28.480469 13.339844 C 28.621094 13.347656 28.761719 13.324219 28.894531 13.273438 C 29.867188 13.113281 30.863281 13.011719 31.882812 13.007812 Z M 32 16 C 30.777344 16 29.585938 16.136719 28.441406 16.394531 C 26.433594 16.847656 25.441406 19.113281 26.496094 20.878906 L 31.695312 29.546875 C 32.238281 30.449219 33.214844 31 34.269531 31 L 44.367188 31 C 46.375 31 47.859375 29.058594 47.25 27.148438 C 45.195312 20.679688 39.144531 16 32 16 Z M 32 18 C 38.128906 18 43.492188 21.917969 45.347656 27.753906 C 45.464844 28.132812 45.304688 28.429688 45.203125 28.574219 C 45.105469 28.703125 44.839844 29 44.371094 29 L 40.480469 29 C 40.40625 28.792969 40.328125 28.59375 40.242188 28.394531 L 41.160156 27.867188 C 41.550781 27.644531 41.746094 27.191406 41.640625 26.757812 C 41.535156 26.320312 41.152344 26.011719 40.707031 25.996094 C 40.515625 25.988281 40.324219 26.035156 40.160156 26.136719 L 39.246094 26.664062 C 39.019531 26.359375 38.769531 26.070312 38.511719 25.796875 L 39.195312 24.984375 C 39.449219 24.683594 39.507812 24.261719 39.339844 23.90625 C 39.175781 23.550781 38.8125 23.324219 38.421875 23.328125 C 38.125 23.335938 37.847656 23.46875 37.664062 23.695312 L 36.980469 24.511719 C 36.664062 24.300781 36.335938 24.113281 35.996094 23.941406 L 36.359375 22.945312 C 36.472656 22.644531 36.4375 22.304688 36.257812 22.035156 C 36.078125 21.765625 35.78125 21.601562 35.460938 21.589844 C 35.019531 21.574219 34.625 21.847656 34.480469 22.261719 L 34.117188 23.257812 C 33.753906 23.171875 33.378906 23.105469 33 23.0625 L 33 22 C 33.003906 21.730469 32.898438 21.46875 32.707031 21.277344 C 32.515625 21.085938 32.253906 20.980469 31.984375 20.984375 C 31.433594 20.996094 30.992188 21.449219 31 22 L 31 23.0625 C 30.734375 23.09375 30.472656 23.132812 30.214844 23.183594 L 28.214844 19.847656 C 27.984375 19.46875 28.078125 19.121094 28.152344 18.945312 C 28.210938 18.800781 28.410156 18.453125 28.882812 18.34375 C 29.898438 18.117188 30.945312 18 32 18 Z M 22.210938 20.457031 C 21.371094 20.457031 20.519531 20.804688 19.90625 21.515625 C 17.472656 24.328125 16 27.988281 16 32 C 16 36.011719 17.472656 39.671875 19.90625 42.484375 C 20.523438 43.195312 21.371094 43.542969 22.210938 43.542969 C 23.214844 43.542969 24.203125 43.050781 24.777344 42.09375 L 29.90625 33.542969 C 30.472656 32.59375 30.472656 31.40625 29.90625 30.457031 L 24.777344 21.90625 C 24.203125 20.949219 23.214844 20.457031 22.210938 20.457031 Z M 22.210938 22.457031 C 22.382812 22.457031 22.804688 22.503906 23.0625 22.9375 L 25.066406 26.277344 C 24.960938 26.402344 24.859375 26.535156 24.761719 26.667969 L 23.839844 26.136719 C 23.667969 26.03125 23.46875 25.980469 23.265625 25.996094 C 22.824219 26.023438 22.449219 26.335938 22.351562 26.769531 C 22.253906 27.203125 22.453125 27.648438 22.839844 27.867188 L 23.753906 28.394531 C 23.601562 28.738281 23.480469 29.097656 23.371094 29.464844 L 22.324219 29.277344 C 22.261719 29.265625 22.195312 29.261719 22.125 29.261719 C 21.609375 29.269531 21.183594 29.671875 21.144531 30.1875 C 21.109375 30.703125 21.46875 31.164062 21.976562 31.25 L 23.027344 31.433594 C 23.015625 31.621094 23 31.808594 23 32 C 23 32.191406 23.015625 32.378906 23.027344 32.566406 L 21.976562 32.753906 C 21.617188 32.804688 21.3125 33.046875 21.183594 33.390625 C 21.058594 33.730469 21.125 34.117188 21.363281 34.394531 C 21.601562 34.667969 21.96875 34.796875 22.324219 34.722656 L 23.371094 34.535156 C 23.480469 34.902344 23.601562 35.261719 23.753906 35.609375 L 22.839844 36.136719 C 22.515625 36.304688 22.308594 36.640625 22.304688 37.007812 C 22.300781 37.375 22.496094 37.714844 22.816406 37.894531 C 23.136719 38.070312 23.53125 38.0625 23.839844 37.867188 L 24.761719 37.335938 C 24.859375 37.464844 24.960938 37.597656 25.066406 37.722656 L 23.0625 41.0625 C 22.804688 41.496094 22.382812 41.542969 22.210938 41.542969 C 22.035156 41.542969 21.695312 41.496094 21.417969 41.175781 C 19.214844 38.628906 18 35.371094 18 32 C 18 28.628906 19.214844 25.371094 21.417969 22.824219 C 21.695312 22.503906 22.035156 22.457031 22.210938 22.457031 Z M 32.128906 25.007812 C 32.851562 25.019531 33.542969 25.144531 34.195312 25.359375 C 34.316406 25.433594 34.453125 25.480469 34.59375 25.5 C 35.269531 25.769531 35.894531 26.136719 36.445312 26.589844 C 36.480469 26.621094 36.515625 26.652344 36.550781 26.679688 C 37.085938 27.136719 37.550781 27.675781 37.925781 28.277344 C 37.972656 28.445312 38.0625 28.601562 38.183594 28.726562 C 38.234375 28.816406 38.285156 28.90625 38.328125 29 L 34.269531 29 C 33.921875 29 33.589844 28.8125 33.410156 28.511719 L 31.332031 25.050781 C 31.523438 25.035156 31.707031 25.011719 31.902344 25.007812 C 31.976562 25.015625 32.054688 25.015625 32.128906 25.003906 Z M 26.175781 28.128906 L 28.1875 31.488281 C 28.378906 31.804688 28.378906 32.199219 28.1875 32.515625 L 26.175781 35.875 C 26.113281 35.777344 26.050781 35.679688 25.992188 35.585938 C 25.960938 35.511719 25.921875 35.445312 25.875 35.386719 C 25.519531 34.742188 25.265625 34.039062 25.125 33.292969 C 25.125 33.289062 25.125 33.289062 25.125 33.289062 C 25.121094 33.25 25.117188 33.214844 25.109375 33.179688 C 25.042969 32.792969 25 32.402344 25 32 C 25 31.660156 25.03125 31.332031 25.078125 31.007812 C 25.140625 30.859375 25.167969 30.695312 25.152344 30.535156 C 25.289062 29.886719 25.523438 29.28125 25.824219 28.714844 C 25.9375 28.597656 26.019531 28.457031 26.0625 28.304688 C 26.101562 28.246094 26.136719 28.183594 26.175781 28.128906 Z M 32 31 C 31.449219 31 31 31.449219 31 32 C 31 32.550781 31.449219 33 32 33 C 32.550781 33 33 32.550781 33 32 C 33 31.449219 32.550781 31 32 31 Z M 34.269531 33 C 33.214844 33 32.238281 33.554688 31.695312 34.457031 L 26.496094 43.125 C 25.441406 44.886719 26.433594 47.152344 28.441406 47.605469 C 29.585938 47.863281 30.777344 48 32 48 C 39.144531 48 45.195312 43.320312 47.25 36.851562 C 47.859375 34.941406 46.375 33 44.367188 33 Z M 34.269531 35 L 38.328125 35 C 38.269531 35.128906 38.199219 35.25 38.132812 35.371094 C 38.070312 35.453125 38.019531 35.542969 37.984375 35.636719 C 37.609375 36.25 37.148438 36.796875 36.613281 37.265625 C 36.527344 37.316406 36.449219 37.382812 36.382812 37.457031 C 35.828125 37.902344 35.207031 38.265625 34.535156 38.527344 C 34.441406 38.542969 34.347656 38.578125 34.265625 38.621094 C 33.589844 38.851562 32.867188 38.980469 32.117188 38.992188 C 32.074219 38.988281 32.027344 38.984375 31.984375 38.984375 C 31.953125 38.988281 31.925781 38.988281 31.894531 38.992188 C 31.703125 38.988281 31.519531 38.964844 31.332031 38.945312 L 33.410156 35.484375 C 33.589844 35.183594 33.921875 35 34.269531 35 Z M 40.480469 35 L 44.371094 35 C 44.839844 35 45.105469 35.296875 45.203125 35.425781 C 45.304688 35.570312 45.464844 35.867188 45.347656 36.246094 C 43.492188 42.078125 38.128906 46 32 46 C 30.945312 46 29.898438 45.882812 28.882812 45.652344 C 28.410156 45.546875 28.214844 45.195312 28.152344 45.050781 C 28.078125 44.875 27.984375 44.53125 28.214844 44.148438 L 30.214844 40.8125 C 30.472656 40.867188 30.734375 40.90625 31 40.9375 L 31 42 C 30.996094 42.359375 31.183594 42.695312 31.496094 42.878906 C 31.808594 43.058594 32.191406 43.058594 32.503906 42.878906 C 32.816406 42.695312 33.003906 42.359375 33 42 L 33 40.9375 C 33.378906 40.894531 33.753906 40.828125 34.117188 40.742188 L 34.480469 41.738281 C 34.59375 42.082031 34.886719 42.339844 35.246094 42.40625 C 35.605469 42.472656 35.96875 42.339844 36.203125 42.058594 C 36.433594 41.777344 36.492188 41.394531 36.359375 41.054688 L 35.996094 40.054688 C 36.335938 39.886719 36.664062 39.699219 36.980469 39.488281 L 37.664062 40.300781 C 37.886719 40.589844 38.25 40.730469 38.613281 40.671875 C 38.972656 40.613281 39.273438 40.363281 39.394531 40.015625 C 39.515625 39.671875 39.4375 39.289062 39.195312 39.015625 L 38.511719 38.203125 C 38.769531 37.929688 39.019531 37.640625 39.246094 37.335938 L 40.160156 37.863281 C 40.46875 38.0625 40.863281 38.070312 41.183594 37.894531 C 41.503906 37.714844 41.699219 37.375 41.695312 37.007812 C 41.691406 36.640625 41.484375 36.304688 41.160156 36.132812 L 40.242188 35.601562 C 40.328125 35.40625 40.40625 35.207031 40.480469 35 Z M 40.480469 35 "/>
</g>
</svg>
